<?xml version="1.0" encoding="UTF-8" standalone="no"?>
<svg
   xmlns:dc="http://purl.org/dc/elements/1.1/"
   xmlns:cc="http://creativecommons.org/ns#"
   xmlns:rdf="http://www.w3.org/1999/02/22-rdf-syntax-ns#"
   xmlns:svg="http://www.w3.org/2000/svg"
   xmlns="http://www.w3.org/2000/svg"
   xmlns:sodipodi="http://sodipodi.sourceforge.net/DTD/sodipodi-0.dtd"
   xmlns:inkscape="http://www.inkscape.org/namespaces/inkscape"
   viewBox="0 0 1198 579"
   version="1.1"
   id="svg204"
   sodipodi:docname="ring.svg"
   inkscape:version="0.92.3 (2405546, 2018-03-11)"
   inkscape:export-filename="/home/arjunth/Desktop/kde-connect/assets/SVG/ring.png"
   inkscape:export-xdpi="96"
   inkscape:export-ydpi="96">
  <metadata
     id="metadata208">
    <rdf:RDF>
      <cc:Work
         rdf:about="">
        <dc:format>image/svg+xml</dc:format>
        <dc:type
           rdf:resource="http://purl.org/dc/dcmitype/StillImage" />
      </cc:Work>
    </rdf:RDF>
  </metadata>
  <sodipodi:namedview
     pagecolor="#ffffff"
     bordercolor="#666666"
     borderopacity="1"
     objecttolerance="10"
     gridtolerance="10"
     guidetolerance="10"
     inkscape:pageopacity="0"
     inkscape:pageshadow="2"
     inkscape:window-width="1920"
     inkscape:window-height="1015"
     id="namedview206"
     showgrid="false"
     inkscape:zoom="1.0751252"
     inkscape:cx="447.38975"
     inkscape:cy="342.11577"
     inkscape:window-x="0"
     inkscape:window-y="0"
     inkscape:window-maximized="1"
     inkscape:current-layer="svg204" />
  <defs
     id="defs4">
    <style
       id="style2">.cls-1{fill:#fff;stroke:#000;}.cls-1,.cls-19,.cls-7{stroke-miterlimit:10;}.cls-2{opacity:0.12;}.cls-21,.cls-3{fill:#3daee9;}.cls-4{fill:#f47500;}.cls-5{fill:#f47750;opacity:0.54;}.cls-10,.cls-21,.cls-5,.cls-8{isolation:isolate;}.cls-6{fill:#2ecc71;}.cls-19,.cls-7{fill:none;stroke-width:2px;}.cls-7{stroke:#535461;}.cls-8{fill:#f5f5f5;opacity:0.2;}.cls-9{fill:#d6d6e3;}.cls-10{opacity:0.1;}.cls-11{fill:#f2f2f2;}.cls-12{fill:#2f2e41;}.cls-13{fill:#3f3d56;}.cls-14{fill:#6c63ff;}.cls-15{fill:#464353;}.cls-16{fill:#a0616a;}.cls-17{fill:#62bddd;}.cls-18{fill:#f67400;}.cls-19{stroke:#d0cde1;}.cls-20{fill:#d0cde1;}</style>
  </defs>
  <title
     id="title6">ring</title>
  <g
     id="Layer_6"
     data-name="Layer 6">
    <rect
       class="cls-1"
       x="74"
       y="13"
       width="1068"
       height="422.05"
       id="rect8" />
  </g>
  <g
     id="Layer_1"
     data-name="Layer 1">
    <rect
       class="cls-5"
       x="465.82"
       y="212.19"
       width="22.99"
       height="11.94"
       id="rect29" />
    <rect
       class="cls-5"
       x="467.59"
       y="226.78"
       width="22.99"
       height="11.94"
       id="rect31" />
    <rect
       class="cls-5"
       x="448.58"
       y="125.52"
       width="22.99"
       height="11.94"
       id="rect33" />
    <rect
       class="cls-5"
       x="464.94"
       y="139.23"
       width="22.99"
       height="11.94"
       id="rect35" />
    <rect
       class="cls-5"
       x="420.72"
       y="126.4"
       width="22.99"
       height="11.94"
       id="rect37" />
    <rect
       class="cls-5"
       x="494.56"
       y="152.94"
       width="22.99"
       height="11.94"
       id="rect39" />
    <rect
       class="cls-5"
       x="466.71"
       y="153.82"
       width="22.99"
       height="11.94"
       id="rect41" />
    <rect
       class="cls-5"
       x="437.08"
       y="140.11"
       width="22.99"
       height="11.94"
       id="rect43" />
    <rect
       class="cls-5"
       x="493.24"
       y="244.91"
       width="22.99"
       height="11.94"
       id="rect45" />
    <rect
       class="cls-5"
       x="465.38"
       y="245.8"
       width="22.99"
       height="11.94"
       id="rect47" />
    <path
       class="cls-6"
       d="M112,196.09s32.41,32.41,14.12,80.48,31.35,128.08,31.35,128.08-.53-.08-1.52-.26C89.37,392.65,56.3,316.52,93.32,260,107.07,239,118.36,214.29,112,196.09Z"
       transform="translate(74 13)"
       id="path49" />
    <path
       class="cls-7"
       d="M112,196.09s18.29,39.73,0,72.13-3.13,123.37,45.48,136.43"
       transform="translate(74 13)"
       id="path51" />
    <path
       class="cls-6"
       d="M54.25,327.17s37-5.89,40.35,27.25,71.11,37.73,71.11,37.73l-1.27.85C108.51,429.7,55,416.39,63.11,367.64,66.1,349.51,65.85,331.31,54.25,327.17Z"
       transform="translate(74 13)"
       id="path53" />
    <path
       class="cls-8"
       d="M54.25,327.17s37-5.89,40.35,27.25,71.11,37.73,71.11,37.73l-1.27.85C108.51,429.7,55,416.39,63.11,367.64,66.1,349.51,65.85,331.31,54.25,327.17Z"
       transform="translate(74 13)"
       id="path55" />
    <path
       class="cls-7"
       d="M54.25,327.17s28.7,6.3,26.34,32.4,42.63,57.4,85.12,32.58"
       transform="translate(74 13)"
       id="path57" />
    <rect
       class="cls-5"
       x="128.43"
       y="212.63"
       width="22.99"
       height="11.94"
       id="rect59" />
    <rect
       class="cls-5"
       x="144.79"
       y="226.34"
       width="22.99"
       height="11.94"
       id="rect61" />
    <rect
       class="cls-5"
       x="269.05"
       y="87.05"
       width="22.99"
       height="11.94"
       id="rect63" />
    <rect
       class="cls-5"
       x="450.34"
       y="307.26"
       width="22.99"
       height="11.94"
       id="rect65" />
    <rect
       class="cls-5"
       x="146.56"
       y="240.93"
       width="22.99"
       height="11.94"
       id="rect67" />
    <rect
       class="cls-5"
       x="285.41"
       y="100.76"
       width="22.99"
       height="11.94"
       id="rect69" />
    <rect
       class="cls-5"
       x="201.39"
       y="181.68"
       width="22.99"
       height="11.94"
       id="rect71" />
    <rect
       class="cls-5"
       x="217.76"
       y="195.39"
       width="22.99"
       height="11.94"
       id="rect73" />
    <rect
       class="cls-5"
       x="261.53"
       y="187.87"
       width="22.99"
       height="11.94"
       id="rect75" />
    <rect
       class="cls-5"
       x="219.52"
       y="209.98"
       width="22.99"
       height="11.94"
       id="rect77" />
    <rect
       class="cls-5"
       x="481.3"
       y="307.26"
       width="22.99"
       height="11.94"
       id="rect79" />
    <rect
       class="cls-9"
       x="161"
       y="343.08"
       width="342.57"
       height="91.97"
       id="rect81" />
    <rect
       class="cls-10"
       x="161"
       y="349.27"
       width="342.57"
       height="11.94"
       id="rect83" />
    <rect
       class="cls-9"
       x="138.02"
       y="341.75"
       width="388.52"
       height="11.94"
       id="rect85" />
    <path
       class="cls-6"
       d="M763.47,315.1c-.16-.16-4-4-7.18-13.14-2.95-8.37-5.94-23-3.36-45,4.88-41.71-20.15-68.29-20.4-68.55l.74-.72A79,79,0,0,1,745.5,206.4,92,92,0,0,1,754,257.08c-4.87,41.64,10.09,57.14,10.24,57.29Z"
       transform="translate(74 13)"
       id="path87" />
    <circle
       class="cls-6"
       cx="798.84"
       cy="194.03"
       r="6.67"
       id="circle89" />
    <circle
       class="cls-6"
       cx="825.14"
       cy="212.98"
       r="6.67"
       id="circle91" />
    <circle
       class="cls-6"
       cx="815.07"
       cy="232.35"
       r="6.67"
       id="circle93" />
    <circle
       class="cls-6"
       cx="835.32"
       cy="241.68"
       r="6.67"
       id="circle95" />
    <circle
       class="cls-11"
       cx="818.49"
       cy="267.98"
       r="6.67"
       id="circle97" />
    <path
       class="cls-11"
       d="M767.45,314.38s-10.39-14.38,6.14-31.1Z"
       transform="translate(74 13)"
       id="path99" />
    <path
       class="cls-11"
       d="M759.4,316s-7.09-16.25-29.9-10.53Z"
       transform="translate(74 13)"
       id="path101" />
    <path
       class="cls-6"
       d="M889.25,367.16c0-.34-.62-8.41,4.57-21.94,4.76-12.41,15.53-31.94,39.83-54.53,46-42.79,43.3-97.36,43.27-97.9l1.53-.09c0,.14.78,14.09-4.22,33.17a137.58,137.58,0,0,1-39.54,65.95c-46,42.72-43.93,74.89-43.91,75.21Z"
       transform="translate(74 13)"
       id="path103" />
    <circle
       class="cls-6"
       cx="1049.32"
       cy="189.93"
       r="9.99"
       id="circle105" />
    <circle
       class="cls-6"
       cx="1060.89"
       cy="237.03"
       r="9.99"
       id="circle107" />
    <circle
       class="cls-6"
       cx="1030.63"
       cy="249.33"
       r="9.99"
       id="circle109" />
    <circle
       class="cls-6"
       cx="1044.65"
       cy="279.6"
       r="9.99"
       id="circle111" />
    <circle
       class="cls-11"
       cx="999.95"
       cy="293.24"
       r="9.99"
       id="circle113" />
    <path
       class="cls-11"
       d="M894.48,370.19s2.12-26.45,37.17-29.46Z"
       transform="translate(74 13)"
       id="path115" />
    <path
       class="cls-11"
       d="M883.7,364.28s7.69-25.4-23.84-41Z"
       transform="translate(74 13)"
       id="path117" />
    <path
       class="cls-6"
       d="M665.7,341.86C662.37,354.17,651,361.79,651,361.79s-6-12.33-2.68-24.64S663,317.22,663,317.22,669,329.55,665.7,341.86Z"
       transform="translate(74 13)"
       id="path119" />
    <path
       class="cls-6"
       d="M635.41,341.86c3.33,12.31,14.73,19.93,14.73,19.93s6-12.33,2.68-24.64-14.73-19.93-14.73-19.93S632.08,329.55,635.41,341.86Z"
       transform="translate(74 13)"
       id="path121" />
    <path
       class="cls-6"
       d="M640.3,339.22c9.14,8.89,10.26,22.56,10.26,22.56s-13.7-.75-22.84-9.64-10.25-22.56-10.25-22.56S631.17,330.32,640.3,339.22Z"
       transform="translate(74 13)"
       id="path123" />
    <path
       class="cls-6"
       d="M660.81,339.22c-9.14,8.89-10.25,22.56-10.25,22.56s13.69-.75,22.83-9.64,10.25-22.56,10.25-22.56S669.94,330.32,660.81,339.22Z"
       transform="translate(74 13)"
       id="path125" />
    <rect
       class="cls-12"
       x="694.85"
       y="401.24"
       width="382.71"
       height="0.89"
       id="rect127" />
    <path
       class="cls-13"
       d="M822.85,251.55s-4-4-13.11-3.18c0,0-88.18-9.14-90.17,7.15s-2.38,25.82,2.78,29.39c0,0,16.89,15.29,8.15,28.8l-4.77,7.94,187.08-1.59s2-29,8-34.55,7.94-35,0-35.75S820.66,244.6,822.85,251.55Z"
       transform="translate(74 13)"
       id="path129" />
    <path
       class="cls-13"
       d="M724.14,283.92s-56,13.11-33.76,37.73l3.57,3.58L692.36,380H950.55l2.78-53.62,3.18-6.36s19.79-23.73-37.38-32.32l-10.29,26-174-1.19S733.67,283.12,724.14,283.92Z"
       transform="translate(74 13)"
       id="path131" />
    <rect
       class="cls-13"
       x="771.13"
       y="389.47"
       width="16.29"
       height="12.31"
       id="rect133" />
    <rect
       class="cls-13"
       x="1005.48"
       y="389.47"
       width="16.29"
       height="12.31"
       id="rect135" />
    <path
       class="cls-13"
       d="M819.83,313.91s-38.89-27.61-87.35.2l-14.3,20.65L721,351.84s100.5,1.59,101.69-9.13S819.83,313.91,819.83,313.91Z"
       transform="translate(74 13)"
       id="path137" />
    <path
       class="cls-13"
       d="M910.83,314.11s-68.22-21.85-88.73,0l2.53,31.38s99.7,7.54,101.29,2.38,2.39-14.3,2.39-14.3Z"
       transform="translate(74 13)"
       id="path139" />
    <path
       class="cls-10"
       d="M910.83,314.11s-68.22-21.85-88.73,0l.06.7c-.07-.33-.11-.5-.11-.5s-41.11-28-89.57-.2l-14.3,20.65L721,351.84s97.31,2.07,103.57-7.71l.1,1.36s99.7,7.54,101.29,2.38,2.39-14.3,2.39-14.3Z"
       transform="translate(74 13)"
       id="path141" />
    <path
       class="cls-14"
       d="M725.73,259.29c19.31-.41,37.61-2.86,54.42-8.34.41,19.34,3.19,37.42,9.53,53.62-18.79-3.41-37.87,0-57.2,9.54C736,296.63,733,278.25,725.73,259.29Z"
       transform="translate(74 13)"
       id="path143" />
    <path
       class="cls-14"
       d="M923.14,262.47c-19.3-.41-37.6-2.86-54.42-8.34-.4,19.33-3.18,37.42-9.53,53.62,18.8-3.41,37.87,0,57.2,9.53C912.92,299.8,915.92,281.43,923.14,262.47Z"
       transform="translate(74 13)"
       id="path145" />
    <rect
       class="cls-15"
       x="839.67"
       y="243.13"
       width="2.08"
       height="0.24"
       rx="0.07"
       transform="translate(543.02 1048.59) rotate(-81.01)"
       id="rect147" />
    <path
       class="cls-13"
       d="M667.14,388.19h-33l-5.73-19.55a8,8,0,0,1,5.42-9.92,7.8,7.8,0,0,1,2.25-.32H665a8,8,0,0,1,8,8,7.86,7.86,0,0,1-.3,2.15Z"
       transform="translate(74 13)"
       id="path149" />
    <path
       class="cls-6"
       d="M683.82,241.3a5.17,5.17,0,1,1,5.17-5.16A5.16,5.16,0,0,1,683.82,241.3Zm0-9.53a4.37,4.37,0,1,0,4.37,4.37A4.36,4.36,0,0,0,683.82,231.77Z"
       transform="translate(74 13)"
       id="path151" />
    <path
       class="cls-6"
       d="M872.1,217.86a5.16,5.16,0,1,1,5.16-5.16A5.16,5.16,0,0,1,872.1,217.86Zm0-9.53a4.37,4.37,0,1,0,4.37,4.37A4.37,4.37,0,0,0,872.1,208.33Z"
       transform="translate(74 13)"
       id="path153" />
    <path
       class="cls-6"
       d="M787.5,180.45H777.17V170.12H787.5Zm-9.54-.8h8.74v-8.74H778Z"
       transform="translate(74 13)"
       id="path155" />
  </g>
  <g
     id="Layer_2"
     data-name="Layer 2">
    <circle
       class="cls-16"
       cx="339.59"
       cy="137.76"
       r="26.69"
       id="circle158" />
    <path
       class="cls-16"
       d="M245.67,138.1s5,37.91-2.71,42.16,46,4.64,46,4.64S277,152,282.41,142Z"
       transform="translate(74 13)"
       id="path160" />
    <path
       class="cls-17"
       d="M328.24,185.09l-4.47,20.36-9.45,43.08-.28,2.36-3.27,27.31-2.17,18.14-1.45,12.19c-8.85,4.54-15.26,7.68-15.26,7.68s-.55-2.76-1.44-6.3c-6.21,1.86-17.7,4.95-27.44,5.56,3.55,4,5.18,7.67,3,10.41-6.68,8.26-34.21-9-43.85-15.5a27,27,0,0,0-.25,4.67l-7.37-5.67.73-13,1.23-22.07L218,246.59a28.84,28.84,0,0,1-1.23-3.64c-2.25-8-5-24-7.1-37.5-1.69-10.82-3-20-3.23-21.9,0-.26-.05-.39-.05-.39l40.8-18c2.9,6.73,16.44,8.75,16.44,8.75a45.34,45.34,0,0,0,20-6.69Z"
       transform="translate(74 13)"
       id="path162" />
    <path
       class="cls-16"
       d="M295,308.48s-1.72.59-4.53,1.43c-6.21,1.86-17.7,4.95-27.44,5.57-8.38.53-15.47-.76-16.76-6.23a5.75,5.75,0,0,1,1.95-5.87c5.12-4.76,18.5-6.46,29.12-7,3-.16,5.77-.24,8.08-.27,3.92-.05,6.49,0,6.49,0l.06.24Z"
       transform="translate(74 13)"
       id="path164" />
    <path
       class="cls-12"
       d="M243.39,99.52l-5-2S248.83,86,263.35,87l-4.09-4.5s10-4,19.05,6.5c4.77,5.51,10.29,12,13.73,19.29h5.35l-2.23,4.91,7.8,4.91-8-.88a27.5,27.5,0,0,1,.22,8.15,10.57,10.57,0,0,1-3.86,6.89h0s-6.19-12.81-6.19-14.81v5s-5-4.5-5-7.49l-2.72,3.49L276.05,113l-16.79,5.49L262,114l-10.43,1.5,4.08-5.5s-11.79,6.5-12.24,12-3.91,10.7-3.91,10.7S230.23,107,243.39,99.52Z"
       transform="translate(74 13)"
       id="path166" />
    <path
       class="cls-17"
       d="M357.25,278.69c-2.72,2.95-9.45,7.39-17.62,12.19-3,1.79-6.27,3.63-9.57,5.46-7.87,4.36-16.11,8.69-22.91,12.19-8.85,4.54-15.26,7.68-15.26,7.68s-.55-2.76-1.44-6.3c-1.19-4.74-3-10.86-4.86-13.57-.06-.1-.13-.18-.19-.27-.55-.72-1.09-1.13-1.63-1.13l27-16.74L322.44,271,314,250.89l-10.55-25.18,6.37-20.26,6.39-20.36h12s4,8.67,9.05,20.76c.76,1.8,1.54,3.69,2.34,5.63C350.08,236.89,363.1,272.36,357.25,278.69Z"
       transform="translate(74 13)"
       id="path168" />
    <path
       class="cls-16"
       d="M266,325.88c-6.68,8.26-34.21-9-43.85-15.5-2.09-1.4-3.34-2.29-3.34-2.29l8.81-11.75,2.79-3.72s2.5,1.32,6.19,3.48l.41.24c3.18,1.87,7.17,4.31,11.21,7,5.56,3.76,11.18,8.05,14.81,12.1S268.19,323.14,266,325.88Z"
       transform="translate(74 13)"
       id="path170" />
    <path
       class="cls-17"
       d="M236.58,296.1a18,18,0,0,0-2.94.24c-8.34,1.43-10.8,9-11.51,14a27,27,0,0,0-.25,4.67l-7.37-5.67-2.69-2.06a49,49,0,0,1-17.21-11A87.09,87.09,0,0,1,183,282.59a121.8,121.8,0,0,1-9-15.39,11.31,11.31,0,0,1-.15-9.6L183,237.26l13.34-29.73c.1-.71.21-1.4.33-2.08,2.64-15.17,9.73-21.9,9.73-21.9h5.41l3.63,21.9,4.5,27.22L216.79,243l-7.28,23.76,7,7.56Z"
       transform="translate(74 13)"
       id="path172" />
    <path
       class="cls-18"
       d="M242.71,232.69l4.63,5.4q2.58-.5,5.36-1.15l-1.33-4.25,3.25,3.79c19.6-4.82,43.89-14.19,43.89-14.19s-26.22,1.93-45.8-2.35a18.63,18.63,0,0,0-21.14,10.52c-2.06,4.72-1.74,8.82,5.59,8.82a49.43,49.43,0,0,0,7.39-.7Z"
       transform="translate(74 13)"
       id="path174" />
    <path
       class="cls-13"
       d="M348.23,321.45v2.21a4.82,4.82,0,0,1-.33,1.76,4.08,4.08,0,0,1-.35.73,4.87,4.87,0,0,1-4.19,2.38H181.3a4.87,4.87,0,0,1-4.19-2.38,4.08,4.08,0,0,1-.35-.73,4.62,4.62,0,0,1-.33-1.76v-2.21a4.86,4.86,0,0,1,4.87-4.87h9.34v-1a.2.2,0,0,1,.2-.2h4.88a.2.2,0,0,1,.2.2h0v1H199v-1a.2.2,0,0,1,.2-.2H204a.2.2,0,0,1,.21.2h0v1h3.05v-1a.2.2,0,0,1,.2-.2h4.87a.21.21,0,0,1,.21.2h0v1h3v-1a.2.2,0,0,1,.2-.2h4.88a.2.2,0,0,1,.2.2h0v1h3v-1a.2.2,0,0,1,.2-.2H229a.2.2,0,0,1,.21.2h0v1h3v-1a.21.21,0,0,1,.21-.2h4.87a.21.21,0,0,1,.21.2h0v1h3v-1a.2.2,0,0,1,.2-.2H279a.21.21,0,0,1,.21.2h0v1h3v-1a.2.2,0,0,1,.21-.2h4.87a.2.2,0,0,1,.2.2v1h3.05v-1a.2.2,0,0,1,.2-.2h4.88a.2.2,0,0,1,.2.2h0v1h3v-1a.2.2,0,0,1,.21-.2H304a.2.2,0,0,1,.2.2h0v1h3v-1a.2.2,0,0,1,.21-.2h4.87a.2.2,0,0,1,.2.2v1h3.05v-1a.2.2,0,0,1,.2-.2h4.88a.2.2,0,0,1,.2.2h0v1h3v-1a.2.2,0,0,1,.21-.2h4.87a.2.2,0,0,1,.2.2h0v1h14.22a4.87,4.87,0,0,1,4.87,4.87Z"
       transform="translate(74 13)"
       id="path176" />
    <path
       class="cls-13"
       d="M335.18,228.68h-60.4v-1.24H247.39v1.24H186.74a4.09,4.09,0,0,0-4.09,4.09h0v82.71a4.08,4.08,0,0,0,4.09,4.08H335.18a4.08,4.08,0,0,0,4.09-4.08V232.77A4.09,4.09,0,0,0,335.18,228.68Z"
       transform="translate(74 13)"
       id="path178" />
    <circle
       class="cls-19"
       cx="335.08"
       cy="270.56"
       r="9.07"
       id="circle180" />
    <circle
       class="cls-20"
       cx="339.59"
       cy="275.65"
       r="9.07"
       id="circle182" />
  </g>
  <g
     id="Layer_5"
     data-name="Layer 5">
    <circle
       class="cls-13"
       cx="951.28"
       cy="313.36"
       r="31.66"
       id="circle185" />
    <path
       class="cls-3"
       d="M890.87,308.52a24.26,24.26,0,0,0-5.07-3.39c-1.52-.72-2.07-.71-3.15.06-.89.64-1.47,1.25-2.5,1s-3-1.75-5-3.71-3.49-4-3.71-5,.38-1.61,1-2.5c.77-1.07.79-1.63.06-3.15a24.33,24.33,0,0,0-3.39-5.06c-1.11-1.11-1.35-.87-2-.64a11.78,11.78,0,0,0-1.79.95,5.47,5.47,0,0,0-2.16,2.28c-.43.93-.92,2.64,1.6,7.14a39.86,39.86,0,0,0,7,9.33h0a40.06,40.06,0,0,0,9.36,7c4.5,2.53,6.22,2,7.14,1.6a5.3,5.3,0,0,0,2.27-2.15,11,11,0,0,0,.95-1.8C891.73,309.87,892,309.63,890.87,308.52Z"
       transform="translate(74 13)"
       id="path187" />
    <path
       class="cls-21"
       d="M877.28,268.7a31.67,31.67,0,1,0,31.65,31.69v0A31.67,31.67,0,0,0,877.28,268.7Zm0,59.1a27.45,27.45,0,1,1,27.45-27.44h0a27.45,27.45,0,0,1-27.45,27.44Z"
       transform="translate(74 13)"
       id="path189" />
    <path
       class="cls-14"
       d="M857.9,231.07a2.51,2.51,0,0,1-1.18.6c-28,5.79-45.62,21.91-53.87,49.29a2.49,2.49,0,1,1-4.77-1.44c8.7-28.88,28.09-46.62,57.63-52.73a2.5,2.5,0,0,1,2.95,1.94,2.52,2.52,0,0,1-.76,2.34Z"
       transform="translate(74 13)"
       id="path191" />
    <path
       class="cls-14"
       d="M864.79,252.75a2.51,2.51,0,0,1-1.18.6c-21,4.34-34.21,16.42-40.39,37a2.49,2.49,0,1,1-4.77-1.43c6.67-22.13,21.52-35.73,44.15-40.4a2.49,2.49,0,0,1,2.19,4.28Z"
       transform="translate(74 13)"
       id="path193" />
    <path
       class="cls-14"
       d="M847.71,208.87a2.39,2.39,0,0,1-1.17.6c-27.95,5.78-58.51,33.74-66.73,61.06A2.49,2.49,0,1,1,775,269.1c8.69-28.87,41-58.41,70.49-64.51a2.49,2.49,0,0,1,2.18,4.28Z"
       transform="translate(74 13)"
       id="path195" />
    <path
       class="cls-14"
       d="M885.51,366.91a2.49,2.49,0,0,0,2.19,4.28c29.54-6.1,48.93-23.84,57.62-52.73a2.49,2.49,0,0,0-4.77-1.44c-8.24,27.38-25.86,43.51-53.86,49.29a2.51,2.51,0,0,0-1.18.6Z"
       transform="translate(74 13)"
       id="path197" />
    <path
       class="cls-14"
       d="M878.62,345.24a2.49,2.49,0,0,0,2.18,4.28c22.64-4.68,37.49-18.27,44.15-40.4a2.49,2.49,0,0,0-4.77-1.44c-6.18,20.53-19.39,32.62-40.38,37a2.42,2.42,0,0,0-1.18.6Z"
       transform="translate(74 13)"
       id="path199" />
    <path
       class="cls-14"
       d="M894.93,391.45a2.5,2.5,0,0,0,3,1.94c29.52-6.1,61.8-35.64,70.49-64.5a2.49,2.49,0,0,0-4.77-1.44c-8.23,27.32-38.79,55.29-66.73,61.06a2.49,2.49,0,0,0-1.94,2.94Z"
       transform="translate(74 13)"
       id="path201" />
  </g>
</svg>
